<mxfile host="app.diagrams.net" modified="2023-06-14T05:07:16.634Z" agent="Mozilla/5.0 (Windows NT 10.0; Win64; x64) AppleWebKit/537.36 (KHTML, like Gecko) Chrome/114.0.0.0 Safari/537.36" version="21.3.8" etag="uS8u7WSiduPRDPAMKD0l" type="github">
  <diagram name="Page-1" id="pKVDKmzyI58x6n3iSxDE">
    <mxGraphModel>
      <root>
        <mxCell id="0" />
        <mxCell id="1" parent="0" />
      </root>
    </mxGraphModel>
  </diagram>
</mxfile>
